<svg xmlns="http://www.w3.org/2000/svg" xmlns:xlink="http://www.w3.org/1999/xlink" width="24px" height="24px" viewBox="0 0 24 24" version="1.1">
<g id="surface1">
<path style=" stroke:none;fill-rule:evenodd;fill:#e0e0e0;fill-opacity:1;" d="M 10.304688 18.023438 L 12.71875 18.023438 L 12.71875 12.179688 L 14.332031 12.179688 L 14.542969 10.164062 L 12.71875 10.164062 L 12.722656 9.15625 C 12.722656 8.628906 12.773438 8.347656 13.527344 8.347656 L 14.535156 8.347656 L 14.535156 6.332031 L 12.921875 6.332031 C 10.984375 6.332031 10.304688 7.3125 10.304688 8.953125 L 10.304688 10.164062 L 9.097656 10.164062 L 9.097656 12.179688 L 10.304688 12.179688 Z M 11.820312 22.925781 C 5.886719 22.925781 1.074219 18.113281 1.074219 12.179688 C 1.074219 6.242188 5.886719 1.433594 11.820312 1.433594 C 17.753906 1.433594 22.566406 6.242188 22.566406 12.179688 C 22.566406 18.113281 17.753906 22.925781 11.820312 22.925781 Z M 11.820312 22.925781 "/>
</g>
</svg>