<svg xmlns="http://www.w3.org/2000/svg" xmlns:xlink="http://www.w3.org/1999/xlink" width="24px" height="24px" viewBox="0 0 24 24" version="1.1">
<g id="surface1">
<path style=" stroke:none;fill-rule:nonzero;fill:#e0e0e0;fill-opacity:1;" d="M 23.671875 12.046875 C 23.671875 13.726562 23.675781 15.402344 23.671875 17.085938 C 23.664062 19.523438 22.527344 21.328125 20.503906 22.601562 C 19.316406 23.34375 18 23.671875 16.601562 23.671875 C 13.546875 23.671875 10.496094 23.6875 7.4375 23.667969 C 5.316406 23.652344 3.488281 22.902344 2.039062 21.328125 C 1.144531 20.351562 0.609375 19.203125 0.453125 17.878906 C 0.421875 17.597656 0.417969 17.320312 0.417969 17.039062 C 0.417969 13.695312 0.414062 10.355469 0.417969 7.011719 C 0.429688 4.570312 1.566406 2.765625 3.589844 1.492188 C 4.785156 0.746094 6.109375 0.421875 7.515625 0.421875 C 10.5625 0.421875 13.609375 0.40625 16.65625 0.425781 C 18.789062 0.441406 20.621094 1.195312 22.070312 2.78125 C 22.953125 3.75 23.484375 4.898438 23.632812 6.210938 C 23.695312 6.726562 23.667969 7.242188 23.671875 7.753906 C 23.675781 9.1875 23.671875 10.617188 23.671875 12.046875 Z M 2.15625 12.046875 C 2.15625 13.765625 2.152344 15.484375 2.15625 17.203125 C 2.160156 18.382812 2.59375 19.402344 3.398438 20.246094 C 4.480469 21.375 5.832031 21.921875 7.382812 21.933594 C 10.460938 21.953125 13.539062 21.9375 16.617188 21.9375 C 17.609375 21.9375 18.558594 21.722656 19.421875 21.226562 C 21.03125 20.300781 21.941406 18.941406 21.941406 17.039062 C 21.941406 13.65625 21.941406 10.273438 21.941406 6.890625 C 21.941406 5.71875 21.515625 4.707031 20.714844 3.867188 C 19.640625 2.734375 18.285156 2.175781 16.738281 2.164062 C 13.625 2.140625 10.519531 2.15625 7.40625 2.15625 C 6.4375 2.15625 5.515625 2.386719 4.671875 2.863281 C 3.066406 3.792969 2.152344 5.152344 2.15625 7.054688 C 2.15625 8.71875 2.15625 10.382812 2.15625 12.046875 Z M 2.15625 12.046875 "/>
<path style=" stroke:none;fill-rule:nonzero;fill:#e0e0e0;fill-opacity:1;" d="M 12.0625 17.015625 C 9.03125 17.015625 6.605469 14.597656 6.609375 11.578125 C 6.613281 8.640625 9.074219 6.230469 12.078125 6.234375 C 15.097656 6.234375 17.535156 8.65625 17.53125 11.648438 C 17.527344 14.609375 15.074219 17.015625 12.0625 17.015625 Z M 12.0625 15.28125 C 14.117188 15.28125 15.796875 13.644531 15.796875 11.632812 C 15.796875 9.613281 14.132812 7.96875 12.078125 7.96875 C 10.023438 7.96875 8.34375 9.605469 8.34375 11.617188 C 8.34375 13.636719 10.007812 15.28125 12.0625 15.28125 Z M 12.0625 15.28125 "/>
<path style=" stroke:none;fill-rule:nonzero;fill:#e0e0e0;fill-opacity:1;" d="M 17.015625 5.792969 C 17.015625 5.128906 17.527344 4.59375 18.164062 4.59375 C 18.800781 4.59375 19.3125 5.132812 19.3125 5.792969 C 19.3125 6.445312 18.800781 6.980469 18.171875 6.984375 C 17.535156 6.988281 17.015625 6.460938 17.015625 5.792969 Z M 17.015625 5.792969 "/>
</g>
</svg>