<svg xmlns="http://www.w3.org/2000/svg" xmlns:xlink="http://www.w3.org/1999/xlink" width="24px" height="24px" viewBox="0 0 24 24" version="1.1">
<g id="surface1">
<path style=" stroke:none;fill-rule:nonzero;fill:#e0e0e0;fill-opacity:1;" d="M 12.019531 3.476562 C 13.082031 3.476562 14.140625 3.460938 15.207031 3.484375 C 16.554688 3.511719 17.90625 3.5625 19.25 3.625 C 19.808594 3.652344 20.375 3.664062 20.929688 3.773438 C 22.246094 4.027344 23.03125 4.835938 23.390625 6.117188 C 23.582031 6.796875 23.652344 7.496094 23.714844 8.195312 C 23.878906 10.074219 23.84375 11.953125 23.796875 13.832031 C 23.769531 14.945312 23.722656 16.0625 23.441406 17.152344 C 23.324219 17.597656 23.1875 18.042969 22.929688 18.429688 C 22.460938 19.140625 21.789062 19.542969 20.960938 19.691406 C 20.253906 19.824219 19.539062 19.835938 18.820312 19.871094 C 17.492188 19.929688 16.167969 19.960938 14.839844 19.992188 C 13.269531 20.035156 11.699219 20.023438 10.132812 20.011719 C 8.863281 19.996094 7.589844 19.96875 6.320312 19.917969 C 5.246094 19.875 4.167969 19.855469 3.109375 19.648438 C 2.523438 19.539062 2 19.292969 1.550781 18.890625 C 1.128906 18.507812 0.914062 18.007812 0.753906 17.484375 C 0.414062 16.359375 0.390625 15.195312 0.320312 14.035156 C 0.238281 12.675781 0.261719 11.316406 0.296875 9.960938 C 0.324219 8.816406 0.375 7.667969 0.613281 6.542969 C 0.753906 5.878906 0.945312 5.21875 1.429688 4.707031 C 2.023438 4.078125 2.785156 3.777344 3.640625 3.71875 C 4.667969 3.648438 5.699219 3.601562 6.726562 3.558594 C 8.488281 3.484375 10.257812 3.460938 12.019531 3.476562 Z M 15.914062 11.503906 C 15.894531 11.445312 15.84375 11.4375 15.804688 11.417969 C 14.703125 10.835938 13.597656 10.257812 12.492188 9.675781 C 11.617188 9.214844 10.738281 8.75 9.863281 8.289062 C 9.617188 8.160156 9.613281 8.164062 9.613281 8.445312 C 9.613281 10.46875 9.613281 12.488281 9.613281 14.511719 C 9.613281 14.550781 9.613281 14.59375 9.613281 14.628906 C 9.609375 14.75 9.65625 14.789062 9.769531 14.726562 C 9.90625 14.652344 10.039062 14.578125 10.179688 14.503906 C 12.027344 13.546875 13.878906 12.585938 15.726562 11.628906 C 15.792969 11.59375 15.875 11.578125 15.914062 11.503906 Z M 15.914062 11.503906 "/>
</g>
</svg>